<mxfile host="app.diagrams.net" agent="Mozilla/5.0 (Windows NT 10.0; Win64; x64) AppleWebKit/537.36 (KHTML, like Gecko) Chrome/132.0.0.0 Safari/537.36" version="28.0.6">
  <diagram name="Page-1" id="lNQidD3hI8QNzn8zrAwx">
    <mxGraphModel dx="872" dy="477" grid="0" gridSize="10" guides="1" tooltips="1" connect="1" arrows="1" fold="1" page="1" pageScale="1" pageWidth="850" pageHeight="1100" math="0" shadow="0">
      <root>
        <mxCell id="0" />
        <mxCell id="1" parent="0" />
        <mxCell id="PYlc8iwYTiqP1ovp5wCV-2" value="" style="rounded=0;whiteSpace=wrap;html=1;" vertex="1" parent="1">
          <mxGeometry x="4" y="27" width="312" height="346" as="geometry" />
        </mxCell>
        <mxCell id="PYlc8iwYTiqP1ovp5wCV-3" value="Human Presence Detection" style="text;html=1;align=center;verticalAlign=middle;resizable=0;points=[];autosize=1;strokeColor=none;fillColor=none;" vertex="1" parent="1">
          <mxGeometry x="16" y="34" width="165" height="26" as="geometry" />
        </mxCell>
        <mxCell id="PYlc8iwYTiqP1ovp5wCV-4" style="edgeStyle=orthogonalEdgeStyle;rounded=0;orthogonalLoop=1;jettySize=auto;html=1;exitX=0.5;exitY=1;exitDx=0;exitDy=0;" edge="1" parent="1" source="PYlc8iwYTiqP1ovp5wCV-5" target="PYlc8iwYTiqP1ovp5wCV-7">
          <mxGeometry relative="1" as="geometry" />
        </mxCell>
        <mxCell id="PYlc8iwYTiqP1ovp5wCV-5" value="Edge Detection" style="rounded=0;whiteSpace=wrap;html=1;" vertex="1" parent="1">
          <mxGeometry x="95.5" y="75" width="117" height="36" as="geometry" />
        </mxCell>
        <mxCell id="PYlc8iwYTiqP1ovp5wCV-6" style="edgeStyle=orthogonalEdgeStyle;rounded=0;orthogonalLoop=1;jettySize=auto;html=1;exitX=0.5;exitY=1;exitDx=0;exitDy=0;" edge="1" parent="1" source="PYlc8iwYTiqP1ovp5wCV-7" target="PYlc8iwYTiqP1ovp5wCV-8">
          <mxGeometry relative="1" as="geometry" />
        </mxCell>
        <mxCell id="PYlc8iwYTiqP1ovp5wCV-7" value="Contour Detection using findContours()" style="rounded=0;whiteSpace=wrap;html=1;" vertex="1" parent="1">
          <mxGeometry x="95.5" y="135" width="117" height="36" as="geometry" />
        </mxCell>
        <mxCell id="PYlc8iwYTiqP1ovp5wCV-10" style="edgeStyle=orthogonalEdgeStyle;rounded=0;orthogonalLoop=1;jettySize=auto;html=1;exitX=0.5;exitY=1;exitDx=0;exitDy=0;entryX=0.5;entryY=0;entryDx=0;entryDy=0;" edge="1" parent="1" source="PYlc8iwYTiqP1ovp5wCV-8" target="PYlc8iwYTiqP1ovp5wCV-9">
          <mxGeometry relative="1" as="geometry" />
        </mxCell>
        <mxCell id="PYlc8iwYTiqP1ovp5wCV-8" value="Draw Bounding Boxes" style="rounded=0;whiteSpace=wrap;html=1;" vertex="1" parent="1">
          <mxGeometry x="95.5" y="193" width="117" height="36" as="geometry" />
        </mxCell>
        <mxCell id="PYlc8iwYTiqP1ovp5wCV-14" style="edgeStyle=orthogonalEdgeStyle;rounded=0;orthogonalLoop=1;jettySize=auto;html=1;exitX=0;exitY=0.75;exitDx=0;exitDy=0;entryX=0.5;entryY=0;entryDx=0;entryDy=0;" edge="1" parent="1" source="PYlc8iwYTiqP1ovp5wCV-9" target="PYlc8iwYTiqP1ovp5wCV-11">
          <mxGeometry relative="1" as="geometry">
            <Array as="points">
              <mxPoint x="96" y="269" />
              <mxPoint x="73" y="269" />
            </Array>
          </mxGeometry>
        </mxCell>
        <mxCell id="PYlc8iwYTiqP1ovp5wCV-17" value="Yes" style="edgeLabel;html=1;align=center;verticalAlign=middle;resizable=0;points=[];" vertex="1" connectable="0" parent="PYlc8iwYTiqP1ovp5wCV-14">
          <mxGeometry x="-0.0465" relative="1" as="geometry">
            <mxPoint as="offset" />
          </mxGeometry>
        </mxCell>
        <mxCell id="PYlc8iwYTiqP1ovp5wCV-15" style="edgeStyle=orthogonalEdgeStyle;rounded=0;orthogonalLoop=1;jettySize=auto;html=1;exitX=1;exitY=0.5;exitDx=0;exitDy=0;entryX=0.5;entryY=0;entryDx=0;entryDy=0;" edge="1" parent="1" source="PYlc8iwYTiqP1ovp5wCV-9" target="PYlc8iwYTiqP1ovp5wCV-12">
          <mxGeometry relative="1" as="geometry" />
        </mxCell>
        <mxCell id="PYlc8iwYTiqP1ovp5wCV-18" value="No" style="edgeLabel;html=1;align=center;verticalAlign=middle;resizable=0;points=[];" vertex="1" connectable="0" parent="PYlc8iwYTiqP1ovp5wCV-15">
          <mxGeometry x="-0.1282" y="1" relative="1" as="geometry">
            <mxPoint as="offset" />
          </mxGeometry>
        </mxCell>
        <mxCell id="PYlc8iwYTiqP1ovp5wCV-9" value="Is Human Detected?&amp;nbsp;" style="rounded=0;whiteSpace=wrap;html=1;" vertex="1" parent="1">
          <mxGeometry x="95.5" y="251" width="117" height="36" as="geometry" />
        </mxCell>
        <mxCell id="PYlc8iwYTiqP1ovp5wCV-11" value="Continue" style="rounded=0;whiteSpace=wrap;html=1;" vertex="1" parent="1">
          <mxGeometry x="14" y="323" width="117" height="36" as="geometry" />
        </mxCell>
        <mxCell id="PYlc8iwYTiqP1ovp5wCV-12" value="Wait or Retry" style="rounded=0;whiteSpace=wrap;html=1;" vertex="1" parent="1">
          <mxGeometry x="178" y="323" width="117" height="36" as="geometry" />
        </mxCell>
        <mxCell id="PYlc8iwYTiqP1ovp5wCV-41" style="edgeStyle=orthogonalEdgeStyle;rounded=0;orthogonalLoop=1;jettySize=auto;html=1;exitX=0.5;exitY=1;exitDx=0;exitDy=0;entryX=0.5;entryY=0;entryDx=0;entryDy=0;" edge="1" parent="1" source="PYlc8iwYTiqP1ovp5wCV-19" target="PYlc8iwYTiqP1ovp5wCV-40">
          <mxGeometry relative="1" as="geometry" />
        </mxCell>
        <mxCell id="PYlc8iwYTiqP1ovp5wCV-19" value="" style="rounded=0;whiteSpace=wrap;html=1;" vertex="1" parent="1">
          <mxGeometry x="343" y="27" width="478" height="188" as="geometry" />
        </mxCell>
        <mxCell id="PYlc8iwYTiqP1ovp5wCV-20" value="Background Removal" style="text;html=1;align=center;verticalAlign=middle;resizable=0;points=[];autosize=1;strokeColor=none;fillColor=none;" vertex="1" parent="1">
          <mxGeometry x="347" y="28" width="133" height="26" as="geometry" />
        </mxCell>
        <mxCell id="PYlc8iwYTiqP1ovp5wCV-36" style="edgeStyle=orthogonalEdgeStyle;rounded=0;orthogonalLoop=1;jettySize=auto;html=1;exitX=1;exitY=0.5;exitDx=0;exitDy=0;entryX=0;entryY=0.5;entryDx=0;entryDy=0;" edge="1" parent="1" source="PYlc8iwYTiqP1ovp5wCV-22" target="PYlc8iwYTiqP1ovp5wCV-24">
          <mxGeometry relative="1" as="geometry" />
        </mxCell>
        <mxCell id="PYlc8iwYTiqP1ovp5wCV-22" value="Apply GrabCut" style="rounded=0;whiteSpace=wrap;html=1;" vertex="1" parent="1">
          <mxGeometry x="375" y="80" width="117" height="36" as="geometry" />
        </mxCell>
        <mxCell id="PYlc8iwYTiqP1ovp5wCV-37" style="edgeStyle=orthogonalEdgeStyle;rounded=0;orthogonalLoop=1;jettySize=auto;html=1;exitX=1;exitY=0.5;exitDx=0;exitDy=0;entryX=0;entryY=0.5;entryDx=0;entryDy=0;" edge="1" parent="1" source="PYlc8iwYTiqP1ovp5wCV-24" target="PYlc8iwYTiqP1ovp5wCV-26">
          <mxGeometry relative="1" as="geometry" />
        </mxCell>
        <mxCell id="PYlc8iwYTiqP1ovp5wCV-24" value="MediaPipe landmarks to isolate human ROI" style="rounded=0;whiteSpace=wrap;html=1;" vertex="1" parent="1">
          <mxGeometry x="521" y="76.5" width="128.5" height="43" as="geometry" />
        </mxCell>
        <mxCell id="PYlc8iwYTiqP1ovp5wCV-25" style="edgeStyle=orthogonalEdgeStyle;rounded=0;orthogonalLoop=1;jettySize=auto;html=1;exitX=0.5;exitY=1;exitDx=0;exitDy=0;entryX=0.5;entryY=0;entryDx=0;entryDy=0;" edge="1" parent="1" source="PYlc8iwYTiqP1ovp5wCV-26" target="PYlc8iwYTiqP1ovp5wCV-31">
          <mxGeometry relative="1" as="geometry" />
        </mxCell>
        <mxCell id="PYlc8iwYTiqP1ovp5wCV-26" value="Output: Only human subject" style="rounded=0;whiteSpace=wrap;html=1;" vertex="1" parent="1">
          <mxGeometry x="674" y="80" width="117" height="36" as="geometry" />
        </mxCell>
        <mxCell id="PYlc8iwYTiqP1ovp5wCV-31" value="Pass to Stability Module" style="rounded=0;whiteSpace=wrap;html=1;" vertex="1" parent="1">
          <mxGeometry x="674" y="157" width="117" height="36" as="geometry" />
        </mxCell>
        <mxCell id="PYlc8iwYTiqP1ovp5wCV-39" style="edgeStyle=orthogonalEdgeStyle;rounded=0;orthogonalLoop=1;jettySize=auto;html=1;exitX=1;exitY=0.25;exitDx=0;exitDy=0;entryX=0;entryY=0.463;entryDx=0;entryDy=0;entryPerimeter=0;" edge="1" parent="1" source="PYlc8iwYTiqP1ovp5wCV-2" target="PYlc8iwYTiqP1ovp5wCV-19">
          <mxGeometry relative="1" as="geometry" />
        </mxCell>
        <mxCell id="PYlc8iwYTiqP1ovp5wCV-40" value="" style="rounded=0;whiteSpace=wrap;html=1;" vertex="1" parent="1">
          <mxGeometry x="343" y="248" width="481" height="213" as="geometry" />
        </mxCell>
        <mxCell id="PYlc8iwYTiqP1ovp5wCV-43" value="Stability Detection" style="text;html=1;align=center;verticalAlign=middle;resizable=0;points=[];autosize=1;strokeColor=none;fillColor=none;" vertex="1" parent="1">
          <mxGeometry x="352" y="251" width="114" height="26" as="geometry" />
        </mxCell>
        <mxCell id="PYlc8iwYTiqP1ovp5wCV-51" style="edgeStyle=orthogonalEdgeStyle;rounded=0;orthogonalLoop=1;jettySize=auto;html=1;exitX=1;exitY=0.5;exitDx=0;exitDy=0;entryX=0;entryY=0.5;entryDx=0;entryDy=0;" edge="1" parent="1" source="PYlc8iwYTiqP1ovp5wCV-44" target="PYlc8iwYTiqP1ovp5wCV-46">
          <mxGeometry relative="1" as="geometry" />
        </mxCell>
        <mxCell id="PYlc8iwYTiqP1ovp5wCV-44" value="Edge-Based&amp;nbsp;" style="rounded=0;whiteSpace=wrap;html=1;" vertex="1" parent="1">
          <mxGeometry x="375" y="300.5" width="95" height="36" as="geometry" />
        </mxCell>
        <mxCell id="PYlc8iwYTiqP1ovp5wCV-50" style="edgeStyle=orthogonalEdgeStyle;rounded=0;orthogonalLoop=1;jettySize=auto;html=1;exitX=1;exitY=0.5;exitDx=0;exitDy=0;entryX=0;entryY=0.5;entryDx=0;entryDy=0;" edge="1" parent="1" source="PYlc8iwYTiqP1ovp5wCV-45" target="PYlc8iwYTiqP1ovp5wCV-46">
          <mxGeometry relative="1" as="geometry" />
        </mxCell>
        <mxCell id="PYlc8iwYTiqP1ovp5wCV-45" value="Landmark-Based" style="rounded=0;whiteSpace=wrap;html=1;" vertex="1" parent="1">
          <mxGeometry x="375" y="369" width="97" height="36" as="geometry" />
        </mxCell>
        <mxCell id="PYlc8iwYTiqP1ovp5wCV-52" style="edgeStyle=orthogonalEdgeStyle;rounded=0;orthogonalLoop=1;jettySize=auto;html=1;exitX=1;exitY=0.5;exitDx=0;exitDy=0;entryX=0;entryY=0.5;entryDx=0;entryDy=0;" edge="1" parent="1" source="PYlc8iwYTiqP1ovp5wCV-46" target="PYlc8iwYTiqP1ovp5wCV-47">
          <mxGeometry relative="1" as="geometry" />
        </mxCell>
        <mxCell id="PYlc8iwYTiqP1ovp5wCV-46" value="Update Stability Time Counter" style="rounded=0;whiteSpace=wrap;html=1;" vertex="1" parent="1">
          <mxGeometry x="497" y="331.5" width="96" height="46" as="geometry" />
        </mxCell>
        <mxCell id="PYlc8iwYTiqP1ovp5wCV-55" value="" style="edgeStyle=orthogonalEdgeStyle;rounded=0;orthogonalLoop=1;jettySize=auto;html=1;" edge="1" parent="1" source="PYlc8iwYTiqP1ovp5wCV-47" target="PYlc8iwYTiqP1ovp5wCV-48">
          <mxGeometry relative="1" as="geometry" />
        </mxCell>
        <mxCell id="PYlc8iwYTiqP1ovp5wCV-47" value="If stable for N seconds" style="rounded=0;whiteSpace=wrap;html=1;" vertex="1" parent="1">
          <mxGeometry x="618" y="333" width="87" height="43" as="geometry" />
        </mxCell>
        <mxCell id="PYlc8iwYTiqP1ovp5wCV-48" value="Trigger Pose Detection" style="rounded=0;whiteSpace=wrap;html=1;" vertex="1" parent="1">
          <mxGeometry x="729" y="331.5" width="85" height="43" as="geometry" />
        </mxCell>
      </root>
    </mxGraphModel>
  </diagram>
</mxfile>
